# Blender 4.3.2
# www.blender.org
mtllib Meja.mtl
o Cube
v 3.118189 2.860217 -1.596607
v 3.118189 2.667767 -1.596607
v 3.118189 2.860217 1.596607
v 3.118189 2.667767 1.596607
v -4.275392 2.860217 -1.596607
v -4.275392 2.667767 -1.596607
v -4.275392 2.860217 1.596607
v -4.275392 2.667767 1.596607
vn -0.0000 1.0000 -0.0000
vn -0.0000 -0.0000 1.0000
vn -1.0000 -0.0000 -0.0000
vn -0.0000 -1.0000 -0.0000
vn 1.0000 -0.0000 -0.0000
vn -0.0000 -0.0000 -1.0000
vt 0.625000 0.500000
vt 0.875000 0.500000
vt 0.875000 0.750000
vt 0.625000 0.750000
vt 0.375000 0.750000
vt 0.625000 1.000000
vt 0.375000 1.000000
vt 0.375000 0.000000
vt 0.625000 0.000000
vt 0.625000 0.250000
vt 0.375000 0.250000
vt 0.125000 0.500000
vt 0.375000 0.500000
vt 0.125000 0.750000
s 0
usemtl Material
f 1/1/1 5/2/1 7/3/1 3/4/1
f 4/5/2 3/4/2 7/6/2 8/7/2
f 8/8/3 7/9/3 5/10/3 6/11/3
f 6/12/4 2/13/4 4/5/4 8/14/4
f 2/13/5 1/1/5 3/4/5 4/5/5
f 6/11/6 5/10/6 1/1/6 2/13/6
o Cube.001
v 2.515256 -0.375885 -1.392955
v 2.322814 -0.377165 -1.392955
v 2.515256 -0.375885 1.387379
v 2.322814 -0.377165 1.387379
v 2.493933 2.830359 -1.392955
v 2.301491 2.829079 -1.392955
v 2.493933 2.830359 1.387379
v 2.301491 2.829079 1.387379
vn 1.0000 0.0067 -0.0000
vn -0.0000 -0.0000 1.0000
vn -0.0067 1.0000 -0.0000
vn -1.0000 -0.0067 -0.0000
vn 0.0067 -1.0000 -0.0000
vn -0.0000 -0.0000 -1.0000
vt 0.625000 0.500000
vt 0.875000 0.500000
vt 0.875000 0.750000
vt 0.625000 0.750000
vt 0.375000 0.750000
vt 0.625000 1.000000
vt 0.375000 1.000000
vt 0.375000 0.000000
vt 0.625000 0.000000
vt 0.625000 0.250000
vt 0.375000 0.250000
vt 0.125000 0.500000
vt 0.375000 0.500000
vt 0.125000 0.750000
s 0
usemtl Material.001
f 9/15/7 13/16/7 15/17/7 11/18/7
f 12/19/8 11/18/8 15/20/8 16/21/8
f 16/22/9 15/23/9 13/24/9 14/25/9
f 14/26/10 10/27/10 12/19/10 16/28/10
f 10/27/11 9/15/11 11/18/11 12/19/11
f 14/25/12 13/24/12 9/15/12 10/27/12
o Cube.002
v -3.438224 -0.375885 -1.390167
v -3.630666 -0.377165 -1.390167
v -3.438224 -0.375885 1.390167
v -3.630666 -0.377165 1.390167
v -3.459547 2.830359 -1.390167
v -3.651989 2.829079 -1.390167
v -3.459547 2.830359 1.390167
v -3.651989 2.829079 1.390167
vn 1.0000 0.0067 -0.0000
vn -0.0000 -0.0000 1.0000
vn -0.0067 1.0000 -0.0000
vn -1.0000 -0.0067 -0.0000
vn 0.0067 -1.0000 -0.0000
vn -0.0000 -0.0000 -1.0000
vt 0.625000 0.500000
vt 0.875000 0.500000
vt 0.875000 0.750000
vt 0.625000 0.750000
vt 0.375000 0.750000
vt 0.625000 1.000000
vt 0.375000 1.000000
vt 0.375000 0.000000
vt 0.625000 0.000000
vt 0.625000 0.250000
vt 0.375000 0.250000
vt 0.125000 0.500000
vt 0.375000 0.500000
vt 0.125000 0.750000
s 0
usemtl Material.002
f 17/29/13 21/30/13 23/31/13 19/32/13
f 20/33/14 19/32/14 23/34/14 24/35/14
f 24/36/15 23/37/15 21/38/15 22/39/15
f 22/40/16 18/41/16 20/33/16 24/42/16
f 18/41/17 17/29/17 19/32/17 20/33/17
f 22/39/18 21/38/18 17/29/18 18/41/18
o Cube.003
v -3.492301 0.203869 1.377609
v -3.492301 2.690934 1.377609
v -3.341994 0.395221 -1.383404
v -3.341994 2.499581 -1.383404
v -1.538723 0.203869 1.377609
v -1.538723 2.690934 1.377609
v -1.689030 0.395221 -1.383404
v -1.689030 2.499581 -1.383404
v -3.492301 2.690934 -1.383404
v -3.492301 0.203869 -1.383404
v -1.538723 0.203869 -1.383404
v -1.538723 2.690934 -1.383404
v -3.341994 2.499581 -1.383404
v -3.341994 0.395221 -1.383404
v -1.689030 0.395221 -1.383404
v -1.689030 2.499581 -1.383404
vn -1.0000 -0.0000 -0.0000
vn 1.0000 -0.0000 -0.0000
vn -0.0000 -0.0000 1.0000
vn -0.0000 -1.0000 -0.0000
vn -0.0000 1.0000 -0.0000
vn -0.0000 -0.0000 -1.0000
vt 0.375000 0.000000
vt 0.625000 0.000000
vt 0.625000 0.250000
vt 0.375000 0.250000
vt 0.375000 0.500000
vt 0.625000 0.500000
vt 0.625000 0.750000
vt 0.375000 0.750000
vt 0.625000 1.000000
vt 0.375000 1.000000
vt 0.125000 0.500000
vt 0.125000 0.750000
vt 0.875000 0.500000
vt 0.875000 0.750000
vt 0.605765 0.269235
vt 0.394235 0.269235
vt 0.394235 0.480765
vt 0.605765 0.480765
s 0
f 25/43/19 26/44/19 33/45/19 34/46/19
f 35/47/20 36/48/20 30/49/20 29/50/20
f 29/50/21 30/49/21 26/51/21 25/52/21
f 34/53/22 35/47/22 29/50/22 25/54/22
f 36/48/23 33/55/23 26/56/23 30/49/23
f 37/57/24 38/58/24 34/46/24 33/45/24
f 38/58/24 39/59/24 35/47/24 34/46/24
f 40/60/24 37/57/24 33/45/24 36/48/24
f 39/59/24 40/60/24 36/48/24 35/47/24
f 28/57/23 27/58/23 38/58/23 37/57/23
f 27/58/23 31/59/23 39/59/23 38/58/23
f 32/60/23 28/57/23 37/57/23 40/60/23
f 31/59/23 32/60/23 40/60/23 39/59/23
o Cube.004
v -3.347840 0.385960 1.295959
v -3.286795 2.003702 1.197262
v -3.347840 0.385960 -1.393405
v -3.286795 2.003702 -1.294707
v -1.684450 0.385960 1.295959
v -1.745495 2.003702 1.197262
v -1.684450 0.385960 -1.393405
v -1.745495 2.003702 -1.294707
v -3.347840 2.003702 1.295959
v -3.347840 2.003702 -1.393405
v -1.684450 2.003702 -1.393405
v -1.684450 2.003702 1.295959
vn -1.0000 -0.0000 -0.0000
vn -0.0000 -0.0000 -1.0000
vn 1.0000 -0.0000 -0.0000
vn -0.0000 -0.0000 1.0000
vn -0.0000 -1.0000 -0.0000
vn -0.0000 1.0000 -0.0000
vt 0.375000 0.000000
vt 0.625000 0.000000
vt 0.625000 0.250000
vt 0.375000 0.250000
vt 0.625000 0.500000
vt 0.375000 0.500000
vt 0.625000 0.750000
vt 0.375000 0.750000
vt 0.625000 1.000000
vt 0.375000 1.000000
vt 0.125000 0.500000
vt 0.125000 0.750000
vt 0.865825 0.740825
vt 0.865825 0.509175
vt 0.875000 0.500000
vt 0.875000 0.750000
vt 0.634175 0.509175
vt 0.634175 0.740825
s 0
f 41/61/25 49/62/25 50/63/25 43/64/25
f 43/64/26 50/63/26 51/65/26 47/66/26
f 47/66/27 51/65/27 52/67/27 45/68/27
f 45/68/28 52/67/28 49/69/28 41/70/28
f 43/71/29 47/66/29 45/68/29 41/72/29
f 42/73/30 44/74/30 50/75/30 49/76/30
f 44/74/30 48/77/30 51/65/30 50/75/30
f 48/77/30 46/78/30 52/67/30 51/65/30
f 46/78/30 42/73/30 49/76/30 52/67/30
o Cube.005
v -3.345901 2.007462 0.476574
v -3.284855 2.501633 0.377876
v -3.345901 2.007462 -2.212790
v -3.284855 2.501633 -2.114093
v -1.682510 2.007462 0.476574
v -1.743555 2.501633 0.377876
v -1.682510 2.007462 -2.212790
v -1.743555 2.501633 -2.114093
v -3.345901 2.501633 0.476574
v -3.345901 2.501633 -2.212790
v -1.682510 2.501633 -2.212790
v -1.682510 2.501633 0.476574
vn -1.0000 -0.0000 -0.0000
vn -0.0000 -0.0000 -1.0000
vn 1.0000 -0.0000 -0.0000
vn -0.0000 -0.0000 1.0000
vn -0.0000 -1.0000 -0.0000
vn -0.0000 1.0000 -0.0000
vt 0.375000 0.000000
vt 0.625000 0.000000
vt 0.625000 0.250000
vt 0.375000 0.250000
vt 0.625000 0.500000
vt 0.375000 0.500000
vt 0.625000 0.750000
vt 0.375000 0.750000
vt 0.625000 1.000000
vt 0.375000 1.000000
vt 0.125000 0.500000
vt 0.125000 0.750000
vt 0.865825 0.740825
vt 0.865825 0.509175
vt 0.875000 0.500000
vt 0.875000 0.750000
vt 0.634175 0.509175
vt 0.634175 0.740825
s 0
f 53/79/31 61/80/31 62/81/31 55/82/31
f 55/82/32 62/81/32 63/83/32 59/84/32
f 59/84/33 63/83/33 64/85/33 57/86/33
f 57/86/34 64/85/34 61/87/34 53/88/34
f 55/89/35 59/84/35 57/86/35 53/90/35
f 54/91/36 56/92/36 62/93/36 61/94/36
f 56/92/36 60/95/36 63/83/36 62/93/36
f 60/95/36 58/96/36 64/85/36 63/83/36
f 58/96/36 54/91/36 61/94/36 64/85/36
o Cube.006
v 2.512210 2.820853 1.592900
v 2.512210 2.821585 1.400451
v 2.512210 -0.372339 1.580750
v 2.512210 -0.371607 1.388302
v -3.669412 2.820853 1.592900
v -3.669412 2.821585 1.400451
v -3.669412 -0.372339 1.580750
v -3.669412 -0.371607 1.388302
vn -0.0000 -0.0038 1.0000
vn -0.0000 -1.0000 -0.0038
vn -1.0000 -0.0000 -0.0000
vn -0.0000 0.0038 -1.0000
vn 1.0000 -0.0000 -0.0000
vn -0.0000 1.0000 0.0038
vt 0.625000 0.500000
vt 0.875000 0.500000
vt 0.875000 0.750000
vt 0.625000 0.750000
vt 0.375000 0.750000
vt 0.625000 1.000000
vt 0.375000 1.000000
vt 0.375000 0.000000
vt 0.625000 0.000000
vt 0.625000 0.250000
vt 0.375000 0.250000
vt 0.125000 0.500000
vt 0.375000 0.500000
vt 0.125000 0.750000
s 0
usemtl Material.003
f 65/97/37 69/98/37 71/99/37 67/100/37
f 68/101/38 67/100/38 71/102/38 72/103/38
f 72/104/39 71/105/39 69/106/39 70/107/39
f 70/108/40 66/109/40 68/101/40 72/110/40
f 66/109/41 65/97/41 67/100/41 68/101/41
f 70/107/42 69/106/42 65/97/42 66/109/42
o Cube.007
v 2.344617 0.310970 0.019636
v 2.344617 0.209205 0.019636
v 2.344617 0.310970 0.489784
v 2.344617 0.209205 0.489784
v -1.549628 0.310970 0.019636
v -1.549628 0.209205 0.019636
v -1.549628 0.310970 0.489784
v -1.549628 0.209205 0.489784
vn -0.0000 1.0000 -0.0000
vn -0.0000 -0.0000 1.0000
vn -1.0000 -0.0000 -0.0000
vn -0.0000 -1.0000 -0.0000
vn 1.0000 -0.0000 -0.0000
vn -0.0000 -0.0000 -1.0000
vt 0.625000 0.500000
vt 0.875000 0.500000
vt 0.875000 0.750000
vt 0.625000 0.750000
vt 0.375000 0.750000
vt 0.625000 1.000000
vt 0.375000 1.000000
vt 0.375000 0.000000
vt 0.625000 0.000000
vt 0.625000 0.250000
vt 0.375000 0.250000
vt 0.125000 0.500000
vt 0.375000 0.500000
vt 0.125000 0.750000
s 0
usemtl Material.004
f 73/111/43 77/112/43 79/113/43 75/114/43
f 76/115/44 75/114/44 79/116/44 80/117/44
f 80/118/45 79/119/45 77/120/45 78/121/45
f 78/122/46 74/123/46 76/115/46 80/124/46
f 74/123/47 73/111/47 75/114/47 76/115/47
f 78/121/48 77/120/48 73/111/48 74/123/48
